
<svg xmlns="http://www.w3.org/2000/svg" version="1.1" xmlns:xlink="http://www.w3.org/1999/xlink" preserveAspectRatio="none" x="0px" y="0px" width="78px" height="36px" viewBox="0 0 78 36">
<defs>
<g id="Layer0_0_FILL">
<path fill="#0099FF" stroke="none" d="
M 70.85 21.25
Q 70.7 22.2 70.4 22.9 70.05 23.65 69.55 24.25 69.15 24.75 68.6 25.1 68 25.45 67.2 25.65 66.35 25.9 65.45 25.9 64.55 25.9 63.75 25.7 62.9 25.5 62.25 25.05 61.6 24.6 61.35 23.9 61.1 23.2 61.1 22.2 61.1 21.3 61.3 17.75 61.5 14.15 61.6 13.05 61.25 13.05 61.1 13.05 60.9 13.05 60.55 13.05 60.55 15.05 60.4 18.2 60.2 21.4 60.2 22.2 60.2 23.25 60.5 24.05 60.75 24.85 61.55 25.5 62.3 26.1 63.3 26.35 64.25 26.6 65.4 26.6 66.05 26.6 66.7 26.5 67.35 26.45 67.95 26.2 68.6 26 69.05 25.7 69.5 25.4 69.8 25.1 70.1 24.75 70.3 24.45 70.5 24.15 70.8 23.5
L 70.7 26.35
Q 70.95 26.35 71.15 26.35 71.4 26.35 71.65 26.35 71.65 25.5 71.7 24.25
L 72.25 13.05
Q 71.9 13.05 71.7 13.05 71.55 13.05 71.2 13.05 71.15 15.1 71.1 17.6 70.95 20.25 70.85 21.25
M 56.4 19.85
Q 56.6 15.55 56.75 13.05 56.4 13.05 56.2 13.05 56.05 13.05 55.7 13.05 55.7 14.55 55.5 19.45 55.3 24.35 55.15 26.35 55.5 26.35 55.7 26.35 55.9 26.35 56.2 26.35 56.2 24.2 56.4 19.85
M 55.65 9.65
Q 56 9.65 56.35 9.65 56.65 9.65 57 9.65
L 57.05 8.35
Q 56.7 8.35 56.35 8.35 56 8.35 55.7 8.35
L 55.65 9.65
M 41.45 11.3
Q 41.5 9.85 41.65 8.35 41.3 8.35 41.05 8.35 40.85 8.35 40.5 8.35
L 39.9 26.35
Q 40.25 26.35 40.4 26.35 40.6 26.35 40.95 26.35
L 40.95 23.15
Q 41.2 23.85 41.45 24.3 41.65 24.7 42.05 25.1 42.4 25.55 43 25.9 43.55 26.2 44.35 26.4 45.1 26.6 45.95 26.6 47.35 26.6 48.55 26.15 49.75 25.6 50.55 24.55 51.4 23.4 51.8 22.05 52.2 20.65 52.2 19.2 52.2 17.9 51.85 16.7 51.5 15.55 50.7 14.55 49.9 13.6 48.65 13.2 47.4 12.75 45.7 12.75 44.75 12.75 43.75 12.9 42.8 13 41.35 13.35
L 41.45 11.3
M 45.8 13.5
Q 47.45 13.5 48.6 14.05 49.8 14.65 50.5 15.95 51.2 17.25 51.2 19.1 51.2 20.4 50.85 21.7 50.5 23 49.8 24 49.1 24.95 48.1 25.45 47.05 25.9 45.85 25.9 44.7 25.9 43.7 25.45 42.75 24.95 42.15 24.1 41.55 23.25 41.3 22.15 41.1 21.1 41.1 19.65 41.1 18.6 41.15 17.8 41.2 17 41.3 14.3 42.75 13.85 43.8 13.65 44.85 13.5 45.8 13.5
M 14.15 28.55
L 14.1 28.55
Q 13.3 28.55 13.2 29.4
L 13.2 34.95
Q 13.2 35.35 13.45 35.6 13.75 35.85 14.1 35.85 14.5 35.85 14.75 35.6 15 35.35 15 34.95
L 15 29.45
Q 15.05 29.1 14.8 28.8 14.55 28.55 14.15 28.55
M 10.7 29.45
Q 10.75 29.1 10.5 28.8 10.25 28.55 9.85 28.55
L 9.8 28.55
Q 9 28.55 8.9 29.4
L 8.9 34.95
Q 8.9 35.35 9.15 35.6 9.45 35.85 9.8 35.85 10.2 35.85 10.45 35.6 10.7 35.35 10.7 34.95
L 10.7 29.45
M 23.45 21.75
Q 23.55 20.95 23.1 20.35
L 20.15 16.4 20.35 14.95
Q 20.95 7.6 16.9 3.2 15.25 1.25 12.55 0.3 11.7 0.05 11 0.6 9.35 1.8 7.95 3.2 5.9 5.1 4.75 7.7 3.6 10.3 3.5 13.1 3.35 15.05 3.65 16.95
L 0.7 20.9
Q 0.2 21.45 0.3 22.2 0.3 22.95 0.95 25.95 1.45 28.15 2 29.2 2.95 31.05 4.55 30.9 5.25 30.85 5.7 30.35 6.2 29.85 6.2 29.15 6.35 27.45 6.9 26.25 7.4 26.45 7.7 26.45
L 15.85 26.4
Q 16.45 26.5 16.9 26.25 17.25 27.5 17.3 28.6 17.3 29.3 17.8 29.85 18.3 30.35 19 30.4 20.05 30.4 20.75 29.7 22.35 28.1 23.45 21.75
M 11.9 2.05
Q 11.95 2.05 13.1 2.55 14.45 3.25 15.55 4.45 19.05 8.15 18.5 14.75
L 18.3 16.9 18.35 16.95 21.7 21.4
Q 20.75 27.15 19.55 28.35 19.4 28.55 19.1 28.55 19.1 27.65 18.85 26.5 18.35 24.2 17.2 23 16.95 23.8 16.45 24.3 16.3 24.55 16 24.55
L 7.7 24.55 7.05 22.85 6.55 23.4
Q 5.3 24.6 4.75 26.95 4.45 28.15 4.4 29.05 3.55 29.1 2.7 25.55
L 2.05 22 5.5 17.45
Q 5.45 17.2 5.45 16.95 5.15 15.1 5.2 13.25 5.35 8.05 9.1 4.45 10.3 3.3 11.9 2.05
M 14.4 9
Q 13.45 8.1 12.15 8.1 10.85 8.1 9.95 9 9.05 9.95 9.05 11.25 9.1 12.55 10 13.45 10.95 14.35 12.2 14.35 13.5 14.3 14.4 13.4 15.3 12.5 15.3 11.2 15.3 9.9 14.4 9
M 12.1 8.9
L 12.15 8.9
Q 13.1 8.85 13.75 9.5 14.4 10.1 14.45 11
L 14.45 11.2
Q 14.55 12.1 13.9 12.8 13.3 13.45 12.4 13.5 12.3 13.55 12.15 13.5 11.25 13.55 10.55 12.9 9.9 12.3 9.85 11.4
L 9.85 11.2
Q 9.85 10.25 10.5 9.6 11.15 8.9 12.1 8.9 Z"/>
</g>
</defs>

<g transform="matrix( 1, 0, 0, 1, 0,0) ">
<use xlink:href="#Layer0_0_FILL"/>
</g>
</svg>
