
<svg xmlns="http://www.w3.org/2000/svg" version="1.1" xmlns:xlink="http://www.w3.org/1999/xlink" preserveAspectRatio="none" x="0px" y="0px" width="310px" height="330px" viewBox="0 0 310 330">
<defs>
<g id="Layer0_0_FILL">
<path fill="#598EB0" fill-opacity="0.08627450980392157" stroke="none" d="
M 148.2 292.6
Q 119 300.85 92.6 296.3 126.5 325.45 164.85 327.65 210.65 326.75 238.7 304.6 266.75 282.45 271.45 273.85 219.75 316.1 148.2 292.6
M 90.35 55.55
Q 110.2 45.15 129.55 42.05 88.9 44.7 75.05 48.95 61.1 52.65 49.5 60.1 48.95 60.45 48.45 60.8 34.4 70.1 23.8 85 5.15 117.95 6.45 160.75 6.5 162.95 6.6 165.2 7.25 162.95 8.05 160.75 18.85 129.65 52.95 104.7 60.15 74.2 90.35 55.55
M 199.4 55.55
Q 206.7 53.6 213.65 52.8 198.6 44.5 174.75 44.95 187.2 48.65 199.4 55.55 Z"/>

<path fill="#598EB0" fill-opacity="0.0392156862745098" stroke="none" d="
M 213.65 52.8
Q 217.5 52.35 221.25 52.25 203.2 2.15 135.35 2 89.6 1.45 49.5 60.1 61.1 52.65 75.05 48.95 88.9 44.7 129.55 42.05 152.5 38.35 174.75 44.95 198.6 44.5 213.65 52.8
M 259.05 234.35
Q 259.05 236.1 260.3 237.35 261.55 238.6 263.3 238.6 265.05 238.6 266.3 237.35 267.55 236.1 267.55 234.35 267.55 232.6 266.3 231.35 265.05 230.1 263.3 230.1 261.55 230.1 260.3 231.35 259.05 232.6 259.05 234.35
M 73.4 234.95
Q 74.15 234.2 74.15 233.15 74.15 232.05 73.4 231.3 72.65 230.55 71.55 230.55 70.45 230.55 69.7 231.3 68.95 232.05 68.95 233.15 68.95 234.25 69.7 235 70.45 235.75 71.55 235.75 72.6 235.75 73.35 235
L 73.4 234.95
M 73.05 127.4
Q 72.4 126.75 71.45 126.75 70.5 126.75 69.85 127.4 69.2 128.05 69.2 129 69.2 129.95 69.85 130.6 70.5 131.25 71.45 131.25 72.35 131.25 73 130.6
L 73.05 130.55
Q 73.7 129.9 73.7 129 73.7 128.05 73.05 127.4 Z"/>

<path fill="#6794B0" fill-opacity="0.13725490196078433" stroke="none" d="
M 221.25 52.25
Q 217.5 52.35 213.65 52.8 206.7 53.6 199.4 55.55 187.2 48.65 174.75 44.95 152.5 38.35 129.55 42.05 110.2 45.15 90.35 55.55 60.15 74.2 52.95 104.7 18.85 129.65 8.05 160.75 7.25 162.95 6.6 165.2 6.4 165.9 6.2 166.65 -0.8 192.25 7.4 221.95 23.25 275.5 77.55 292.6 84.95 295 92.6 296.3 119 300.85 148.2 292.6 219.75 316.1 271.45 273.85 277 269.25 282.35 263.95 313.15 230.8 305.35 180.5 300.35 158.1 291.05 140.05 303.75 92 260.3 62.7 242.5 51.75 221.25 52.25
M 256.6 94.8
Q 257.15 95.4 257.1 96.25 257.05 97.05 256.45 97.6
L 238.35 113.6
Q 237.7 114.15 236.9 114.1 236.05 114.05 235.5 113.45 234.95 112.8 235 112 235.05 111.15 235.7 110.6
L 253.8 94.6
Q 254.4 94.05 255.25 94.1 256.05 94.15 256.6 94.8
M 232.2 80.5
Q 232.6 81.2 232.4 82
L 226.35 103.75
Q 226.1 104.55 225.4 104.95 224.65 105.35 223.85 105.15 223.05 104.9 222.65 104.2 222.25 103.45 222.5 102.65
L 228.55 80.9
Q 228.75 80.1 229.5 79.7 230.2 79.3 231 79.55 231.8 79.75 232.2 80.5
M 242.45 129.25
Q 241.75 128.75 241.6 127.95 241.45 127.15 241.9 126.5 242.4 125.8 243.2 125.65
L 266 121.45
Q 266.8 121.3 267.5 121.75 268.15 122.25 268.35 123.05 268.45 123.85 268 124.55 267.5 125.2 266.7 125.4
L 243.9 129.6
Q 243.1 129.7 242.45 129.25
M 214.15 119.55
Q 227.15 119.55 227.15 132.55
L 227.15 246.6
Q 227.15 259.6 214.15 259.6
L 102.05 259.6
Q 89.05 259.6 89.05 246.6
L 89.05 132.55
Q 89.05 119.55 102.05 119.55
L 214.15 119.55
M 258.15 156.75
Q 258.45 157.05 258.45 157.45 258.45 157.85 258.15 158.15 257.85 158.45 257.45 158.45 257.05 158.45 256.75 158.15
L 249.4 150.8
Q 249.1 150.5 249.1 150.1 249.1 149.7 249.4 149.4 249.7 149.1 250.1 149.1 250.5 149.1 250.8 149.4
L 258.15 156.75
M 251.9 191.3
Q 252.1 191.05 252.45 191.05 252.75 191.05 252.95 191.25 253.2 191.45 253.2 191.8 253.2 192.1 253 192.3
L 250.3 195.25 253.5 198.05
Q 253.75 198.25 253.75 198.55 253.75 198.85 253.55 199.1 253.35 199.35 253.05 199.35 252.75 199.35 252.5 199.15
L 249.35 196.35 246.45 199.45
Q 246.25 199.65 245.95 199.65 245.6 199.65 245.4 199.45 245.15 199.25 245.15 198.95 245.15 198.6 245.35 198.4
L 248.2 195.35 245.15 192.6
Q 244.9 192.4 244.9 192.1 244.9 191.8 245.1 191.55 245.3 191.3 245.6 191.3 245.9 191.3 246.15 191.5
L 249.2 194.25 251.9 191.3
M 86.55 95.65
Q 86.85 95.65 87.1 95.85
L 93.9 102.4
Q 94.1 102.6 94.1 102.95 94.1 103.25 93.9 103.5 93.7 103.7 93.4 103.7 93.05 103.7 92.85 103.5
L 86.05 96.95
Q 85.8 96.75 85.8 96.45 85.8 96.1 86 95.9 86.2 95.65 86.55 95.65
M 71.45 125.25
Q 73 125.25 74.1 126.35 75.2 127.45 75.2 129 75.2 130.55 74.1 131.65 73 132.75 71.45 132.75 69.9 132.75 68.8 131.65 67.7 130.55 67.7 129 67.7 127.45 68.75 126.35
L 68.8 126.3
Q 69.9 125.25 71.45 125.25
M 53.8 177.95
Q 53.55 177.7 53.55 177.4 53.55 177.1 53.8 176.9 54 176.65 54.3 176.65 54.6 176.65 54.85 176.9
L 59.9 181.85 59.9 181.8 64.8 177.1
Q 65 176.9 65.35 176.9 65.65 176.9 65.85 177.15 66.05 177.35 66.05 177.7 66.05 178 65.85 178.2
L 60.95 182.9 66.9 188.65
Q 67.1 188.9 67.1 189.2 67.1 189.5 66.9 189.75 66.65 189.95 66.35 189.95 66.05 189.95 65.85 189.75
L 59.85 183.95 54.05 189.45
Q 53.8 189.65 53.5 189.65 53.15 189.65 52.95 189.45 52.75 189.2 52.75 188.9 52.75 188.55 53 188.35
L 58.8 182.85 53.8 177.95
M 71.55 229.05
Q 73.25 229.05 74.45 230.25 75.65 231.45 75.65 233.15 75.65 234.85 74.45 236.05 73.25 237.25 71.55 237.25 69.85 237.25 68.65 236.05 67.45 234.85 67.45 233.15 67.45 231.45 68.6 230.25
L 68.65 230.2
Q 69.85 229.05 71.55 229.05
M 258.9 238.75
Q 257.05 236.9 257.05 234.35 257.05 231.8 258.9 229.95 260.75 228.1 263.3 228.1 265.85 228.1 267.7 229.95 269.55 231.8 269.55 234.35 269.55 236.9 267.7 238.75 265.85 240.6 263.3 240.6 260.75 240.6 258.9 238.75 Z"/>

<path fill="#3FA2F3" stroke="none" d="
M 257.05 234.35
Q 257.05 236.9 258.9 238.75 260.75 240.6 263.3 240.6 265.85 240.6 267.7 238.75 269.55 236.9 269.55 234.35 269.55 231.8 267.7 229.95 265.85 228.1 263.3 228.1 260.75 228.1 258.9 229.95 257.05 231.8 257.05 234.35
M 260.3 237.35
Q 259.05 236.1 259.05 234.35 259.05 232.6 260.3 231.35 261.55 230.1 263.3 230.1 265.05 230.1 266.3 231.35 267.55 232.6 267.55 234.35 267.55 236.1 266.3 237.35 265.05 238.6 263.3 238.6 261.55 238.6 260.3 237.35 Z"/>

<path fill="#74BBF4" stroke="none" d="
M 74.45 230.25
Q 73.25 229.05 71.55 229.05 69.85 229.05 68.65 230.2
L 68.6 230.25
Q 67.45 231.45 67.45 233.15 67.45 234.85 68.65 236.05 69.85 237.25 71.55 237.25 73.25 237.25 74.45 236.05 75.65 234.85 75.65 233.15 75.65 231.45 74.45 230.25
M 74.15 233.15
Q 74.15 234.2 73.4 234.95
L 73.35 235
Q 72.6 235.75 71.55 235.75 70.45 235.75 69.7 235 68.95 234.25 68.95 233.15 68.95 232.05 69.7 231.3 70.45 230.55 71.55 230.55 72.65 230.55 73.4 231.3 74.15 232.05 74.15 233.15 Z"/>

<path fill="#C2CDD6" stroke="none" d="
M 53.55 177.4
Q 53.55 177.7 53.8 177.95
L 58.8 182.85 53 188.35
Q 52.75 188.55 52.75 188.9 52.75 189.2 52.95 189.45 53.15 189.65 53.5 189.65 53.8 189.65 54.05 189.45
L 59.85 183.95 65.85 189.75
Q 66.05 189.95 66.35 189.95 66.65 189.95 66.9 189.75 67.1 189.5 67.1 189.2 67.1 188.9 66.9 188.65
L 60.95 182.9 65.85 178.2
Q 66.05 178 66.05 177.7 66.05 177.35 65.85 177.15 65.65 176.9 65.35 176.9 65 176.9 64.8 177.1
L 59.9 181.8 59.9 181.85 54.85 176.9
Q 54.6 176.65 54.3 176.65 54 176.65 53.8 176.9 53.55 177.1 53.55 177.4 Z"/>

<path fill="#C3CED6" stroke="none" d="
M 74.1 126.35
Q 73 125.25 71.45 125.25 69.9 125.25 68.8 126.3
L 68.75 126.35
Q 67.7 127.45 67.7 129 67.7 130.55 68.8 131.65 69.9 132.75 71.45 132.75 73 132.75 74.1 131.65 75.2 130.55 75.2 129 75.2 127.45 74.1 126.35
M 71.45 126.75
Q 72.4 126.75 73.05 127.4 73.7 128.05 73.7 129 73.7 129.9 73.05 130.55
L 73 130.6
Q 72.35 131.25 71.45 131.25 70.5 131.25 69.85 130.6 69.2 129.95 69.2 129 69.2 128.05 69.85 127.4 70.5 126.75 71.45 126.75 Z"/>

<path fill="#71BAF4" stroke="none" d="
M 87.1 95.85
Q 86.85 95.65 86.55 95.65 86.2 95.65 86 95.9 85.8 96.1 85.8 96.45 85.8 96.75 86.05 96.95
L 92.85 103.5
Q 93.05 103.7 93.4 103.7 93.7 103.7 93.9 103.5 94.1 103.25 94.1 102.95 94.1 102.6 93.9 102.4
L 87.1 95.85 Z"/>

<path fill="#77BDF2" stroke="none" d="
M 252.45 191.05
Q 252.1 191.05 251.9 191.3
L 249.2 194.25 246.15 191.5
Q 245.9 191.3 245.6 191.3 245.3 191.3 245.1 191.55 244.9 191.8 244.9 192.1 244.9 192.4 245.15 192.6
L 248.2 195.35 245.35 198.4
Q 245.15 198.6 245.15 198.95 245.15 199.25 245.4 199.45 245.6 199.65 245.95 199.65 246.25 199.65 246.45 199.45
L 249.35 196.35 252.5 199.15
Q 252.75 199.35 253.05 199.35 253.35 199.35 253.55 199.1 253.75 198.85 253.75 198.55 253.75 198.25 253.5 198.05
L 250.3 195.25 253 192.3
Q 253.2 192.1 253.2 191.8 253.2 191.45 252.95 191.25 252.75 191.05 252.45 191.05 Z"/>

<path fill="#BCC4C9" stroke="none" d="
M 258.45 157.45
Q 258.45 157.05 258.15 156.75
L 250.8 149.4
Q 250.5 149.1 250.1 149.1 249.7 149.1 249.4 149.4 249.1 149.7 249.1 150.1 249.1 150.5 249.4 150.8
L 256.75 158.15
Q 257.05 158.45 257.45 158.45 257.85 158.45 258.15 158.15 258.45 157.85 258.45 157.45 Z"/>

<path fill="#96A6B0" stroke="none" d="
M 227.15 132.55
Q 227.15 119.55 214.15 119.55
L 102.05 119.55
Q 89.05 119.55 89.05 132.55
L 89.05 246.6
Q 89.05 259.6 102.05 259.6
L 214.15 259.6
Q 227.15 259.6 227.15 246.6
L 227.15 132.55
M 189.75 171.8
Q 189.2 172.3 188.5 172.3
L 106.2 172.3
Q 105.5 172.3 105 171.8 104.45 171.25 104.45 170.55 104.45 169.85 105 169.35 105.5 168.8 106.2 168.8
L 188.5 168.8
Q 189.2 168.8 189.75 169.35 190.25 169.85 190.25 170.55 190.25 171.25 189.75 171.8
M 211.4 178.7
Q 213.4 178.7 213.4 180.7
L 213.4 239.6
Q 213.4 241.6 211.4 241.6
L 106.9 241.6
Q 104.9 241.6 104.9 239.6
L 104.9 180.7
Q 104.9 178.7 106.9 178.7
L 211.4 178.7
M 213.55 158.95
Q 214.1 159.5 214.1 160.35 214.1 161.2 213.55 161.8 212.95 162.35 212.1 162.35
L 105.15 162.35
Q 104.3 162.35 103.75 161.8 103.15 161.2 103.15 160.35 103.15 159.5 103.75 158.95 104.3 158.35 105.15 158.35
L 212.1 158.35
Q 212.95 158.35 213.55 158.95
M 130.65 146.9
Q 130.65 146.3 131.1 145.85 131.55 145.4 132.15 145.4
L 151 145.4
Q 151.6 145.4 152.05 145.85 152.5 146.3 152.5 146.9 152.5 147.5 152.05 147.95 151.6 148.4 151 148.4
L 132.15 148.4
Q 131.55 148.4 131.1 147.95 130.65 147.5 130.65 146.9
M 130.95 138.25
Q 130.4 137.7 130.4 137 130.4 136.3 130.95 135.8 131.45 135.25 132.15 135.25
L 158.1 135.25
Q 158.8 135.25 159.35 135.8 159.85 136.3 159.85 137 159.85 137.7 159.35 138.25 158.8 138.75 158.1 138.75
L 132.15 138.75
Q 131.45 138.75 130.95 138.25
M 102.7 141.2
Q 102.7 136.65 105.9 133.4 109.15 130.2 113.7 130.2 118.25 130.2 121.45 133.4 124.7 136.65 124.7 141.2 124.7 145.75 121.45 148.95 118.25 152.2 113.7 152.2 109.15 152.2 105.9 148.95 102.7 145.75 102.7 141.2
M 178.2 199.95
Q 176.65 199.95 175.55 201.05 174.45 202.15 174.45 203.7 174.45 205.25 175.55 206.35 176.65 207.45 178.2 207.45 179.75 207.45 180.85 206.35 181.95 205.25 181.95 203.7 181.95 202.15 180.85 201.05 179.75 199.95 178.2 199.95
M 143.35 206.35
Q 144.45 205.25 144.45 203.7 144.45 202.15 143.35 201.05 142.25 199.95 140.7 199.95 139.15 199.95 138.05 201.05 136.95 202.15 136.95 203.7 136.95 205.25 138.05 206.35 139.15 207.45 140.7 207.45 142.25 207.45 143.35 206.35
M 151.85 218
Q 150.65 218 149.8 218.85 148.95 219.7 148.95 220.9 148.95 222.1 149.8 222.95 150.65 223.8 151.85 223.8
L 168.55 223.8
Q 169.75 223.8 170.6 222.95 171.45 222.1 171.45 220.9 171.45 219.7 170.6 218.85 169.75 218 168.55 218
L 151.85 218
M 241.6 127.95
Q 241.75 128.75 242.45 129.25 243.1 129.7 243.9 129.6
L 266.7 125.4
Q 267.5 125.2 268 124.55 268.45 123.85 268.35 123.05 268.15 122.25 267.5 121.75 266.8 121.3 266 121.45
L 243.2 125.65
Q 242.4 125.8 241.9 126.5 241.45 127.15 241.6 127.95
M 232.4 82
Q 232.6 81.2 232.2 80.5 231.8 79.75 231 79.55 230.2 79.3 229.5 79.7 228.75 80.1 228.55 80.9
L 222.5 102.65
Q 222.25 103.45 222.65 104.2 223.05 104.9 223.85 105.15 224.65 105.35 225.4 104.95 226.1 104.55 226.35 103.75
L 232.4 82
M 257.1 96.25
Q 257.15 95.4 256.6 94.8 256.05 94.15 255.25 94.1 254.4 94.05 253.8 94.6
L 235.7 110.6
Q 235.05 111.15 235 112 234.95 112.8 235.5 113.45 236.05 114.05 236.9 114.1 237.7 114.15 238.35 113.6
L 256.45 97.6
Q 257.05 97.05 257.1 96.25 Z"/>

<path fill="#F0F3F5" stroke="none" d="
M 105.9 133.4
Q 102.7 136.65 102.7 141.2 102.7 145.75 105.9 148.95 109.15 152.2 113.7 152.2 118.25 152.2 121.45 148.95 124.7 145.75 124.7 141.2 124.7 136.65 121.45 133.4 118.25 130.2 113.7 130.2 109.15 130.2 105.9 133.4
M 130.4 137
Q 130.4 137.7 130.95 138.25 131.45 138.75 132.15 138.75
L 158.1 138.75
Q 158.8 138.75 159.35 138.25 159.85 137.7 159.85 137 159.85 136.3 159.35 135.8 158.8 135.25 158.1 135.25
L 132.15 135.25
Q 131.45 135.25 130.95 135.8 130.4 136.3 130.4 137
M 131.1 145.85
Q 130.65 146.3 130.65 146.9 130.65 147.5 131.1 147.95 131.55 148.4 132.15 148.4
L 151 148.4
Q 151.6 148.4 152.05 147.95 152.5 147.5 152.5 146.9 152.5 146.3 152.05 145.85 151.6 145.4 151 145.4
L 132.15 145.4
Q 131.55 145.4 131.1 145.85
M 214.1 160.35
Q 214.1 159.5 213.55 158.95 212.95 158.35 212.1 158.35
L 105.15 158.35
Q 104.3 158.35 103.75 158.95 103.15 159.5 103.15 160.35 103.15 161.2 103.75 161.8 104.3 162.35 105.15 162.35
L 212.1 162.35
Q 212.95 162.35 213.55 161.8 214.1 161.2 214.1 160.35
M 213.4 180.7
Q 213.4 178.7 211.4 178.7
L 106.9 178.7
Q 104.9 178.7 104.9 180.7
L 104.9 239.6
Q 104.9 241.6 106.9 241.6
L 211.4 241.6
Q 213.4 241.6 213.4 239.6
L 213.4 180.7
M 149.8 218.85
Q 150.65 218 151.85 218
L 168.55 218
Q 169.75 218 170.6 218.85 171.45 219.7 171.45 220.9 171.45 222.1 170.6 222.95 169.75 223.8 168.55 223.8
L 151.85 223.8
Q 150.65 223.8 149.8 222.95 148.95 222.1 148.95 220.9 148.95 219.7 149.8 218.85
M 144.45 203.7
Q 144.45 205.25 143.35 206.35 142.25 207.45 140.7 207.45 139.15 207.45 138.05 206.35 136.95 205.25 136.95 203.7 136.95 202.15 138.05 201.05 139.15 199.95 140.7 199.95 142.25 199.95 143.35 201.05 144.45 202.15 144.45 203.7
M 175.55 201.05
Q 176.65 199.95 178.2 199.95 179.75 199.95 180.85 201.05 181.95 202.15 181.95 203.7 181.95 205.25 180.85 206.35 179.75 207.45 178.2 207.45 176.65 207.45 175.55 206.35 174.45 205.25 174.45 203.7 174.45 202.15 175.55 201.05
M 188.5 172.3
Q 189.2 172.3 189.75 171.8 190.25 171.25 190.25 170.55 190.25 169.85 189.75 169.35 189.2 168.8 188.5 168.8
L 106.2 168.8
Q 105.5 168.8 105 169.35 104.45 169.85 104.45 170.55 104.45 171.25 105 171.8 105.5 172.3 106.2 172.3
L 188.5 172.3 Z"/>
</g>
</defs>

<g transform="matrix( 1, 0, 0, 1, 0,0) ">
<use xlink:href="#Layer0_0_FILL"/>
</g>
</svg>
